<svg xmlns="http://www.w3.org/2000/svg" xmlns:xlink="http://www.w3.org/1999/xlink" version="1.1" width="1080pt" height="1080pt" viewBox="0 0 1080 1080">
<defs>
<clipPath id="clip_0">
<path transform="matrix(1,0,0,-1,0,1080)" d="M0 1080H1080V0H0Z"/>
</clipPath>
</defs>
<g id="layer_1" data-name="">
<g clip-path="url(#clip_0)">
<path transform="matrix(1,0,0,-1,790.5703,543.4189)" d="M0 0V-.079C16.434-.079 32.866-.121 49.299-.056 54.968-.033 61.148-.122 63.513 6.412 65.779 12.678 61.635 17.301 57.511 21.101 51.808 26.356 45.506 30.955 39.532 35.92 17.007 54.644-5.653 73.21-27.915 92.241-36.976 99.986-47.39 100.536-57.034 96.837-65.379 93.637-62.109 83.991-62.226 76.991-62.55 57.537-62.455 38.073-62.32 18.615-62.199 1.046-61.137 .057-44.108 .009-29.405-.032-14.702 0 0 0M-207.526-212.317C-187.811-178.182-193.296-141.783-193.14-106.221-193.103-97.95-190.83-94.759-183.407-93.129-160.645-88.131-139.979-76.831-127.596-58.113-110.48-32.244-92.898-5.876-85.668 25.398-82.433 39.391-80.146 53.308-80.631 67.714-81.693 99.219-93.35 114.202-123.685 122.434-127.023 123.34-130.344 124.869-133.714 124.997-146.678 125.489-150.048 132.212-148.608 144.319-147.164 156.478-140.921 164.456-129.456 165.155-112.773 166.173-93.807 170.34-86.039 147.557-83.97 141.488-77.712 144.305-73.392 144.316-66.937 144.332-62.032 143.685-62.884 135.469-63.522 129.31-60.431 127.753-54.558 127.033-33.378 124.438-15.044 115.59 .157 100.344 39.403 60.981 78.6 21.566 118.204-17.435 125.791-24.905 129.817-32.851 126.298-42.748 122.425-53.641 112.749-54.203 102.664-54.129 66.735-53.865 30.804-54.124-5.127-54.041-11.777-54.026-16.823-56.116-20.087-62.19-22.979-67.574-21.437-72.266-18.269-76.711-14.352-82.206-8.285-81.072-2.82-81.088 34.841-81.191 72.513-81.616 110.16-80.873 122.168-80.637 127.064-83.073 126.201-96.253 124.96-115.221 125.878-134.328 125.808-153.375 125.679-188.567 105.386-209.67 70.172-211.258 66.714-211.413 63.175-210.947 59.798-211.511 49.651-213.204 48.786-208.677 50.022-199.898 53.646-174.18 43.612-154.363 21.434-141.078 1.139-128.922-19.906-128.455-39.8-141.289-61.598-155.351-71.773-175.889-67.978-202.13-67.195-207.535-64.313-212.395-73.381-212.37-117.454-212.253-161.528-212.317-207.526-212.317" fill="#82c145"/>
<path transform="matrix(1,0,0,-1,474.6758,735.75979)" d="M0 0C.023-20.935-16.727-37.702-37.65-37.69-58.538-37.68-75.172-21.085-75.417-.014-75.655 20.405-58.255 37.939-37.651 38.045-17.19 38.149-.022 20.802 0 0" fill="#0aa4d7"/>
<path transform="matrix(1,0,0,-1,819.083,736.9063)" d="M0 0C-.465-20.449-17.272-37.042-37.303-36.826-58.374-36.599-75.178-19.631-74.968 1.207-74.751 22.734-56.947 40.276-36.048 39.555-15.471 38.844 .484 21.336 0 0" fill="#82c145"/>
<path transform="matrix(1,0,0,-1,565.793,636.4834)" d="M0 0C-28.028 10.342-47.899 28.632-63.041 55.072-82.951 89.84-99.396 124.483-96.947 165.814-95.456 190.985-83.158 206.708-59.557 214.458-57.088 215.27-53.354 213.97-51.243 220.335H-209.39C-239.232 219.713-263.581 199.041-269.403 167.815-270.969 159.418-273.994 157.126-281.846 157.371-296.979 157.843-312.136 157.677-327.281 157.576-343.832 157.466-353.513 149.529-352.995 136.787-352.492 124.397-343.264 117.269-327.498 117.217-284.66 117.076-241.821 116.976-198.983 116.859-190.815 110.741-184.89 103.275-189.129 92.599-193.212 82.312-202.08 80.31-212.491 80.505-237.562 80.974-262.646 80.688-287.725 80.665-297.271 80.655-305.044 76.865-307.924 67.539-310.718 58.488-310.197 49.467-300.249 44.077-295.687 38.574-289.344 39.663-283.382 39.645-231.903 39.477-180.424 39.37-128.944 39.246-124.216 34.76-118.694 30.311-122.433 22.795-125.935 15.754-132.502 13.847-139.931 14.132-142.522 14.231-145.12 14.144-147.716 14.143-222.972 14.122-298.228 14.113-373.483 14.058-378.229 14.054-383.016 14.017-387.711 13.425-397.779 12.156-403.146 5.56-403.865-3.927-404.623-13.898-400.173-21.731-389.991-24.581-385.524-25.831-380.61-25.786-375.898-25.802-335.243-25.937-294.586-25.736-253.934-26.124-240.735-26.25-232.49-33.813-232.515-43.916-232.54-54.399-240.258-61.036-253.589-62.037-274.658-63.621-274.682-63.621-274.602-85.094-274.585-89.415-274.864-93.839-274.062-98.034-272.406-106.698-269.492-114.766-259.495-117.273-239.622-117.174-219.734-116.621-199.883-117.225-193.065-117.432-190.301-114.908-188.829-109.177-188.777-104.425-188.861-99.668-188.653-94.923-187.361-65.445-160.576-39.606-130.934-39.173-98.412-38.696-71.857-62.284-68.595-93.016-67.639-102.015-75.474-114.092-67.423-118.767-59.943-123.108-48.068-119.891-38.128-119.98-34.235-120.016-30.231-119.397-26.469-120.101-8.861-123.394-.213-113.789 5.104-98.923 6.396-95.312 9.112-92.174 8.627-87.991 8.664-64.815 8.447-41.636 8.879-18.468 9.028-10.434 9.06-3.246 0 0" fill="#0aa4d7"/>
<path transform="matrix(1,0,0,-1,574.4199,724.4746)" d="M0 0C.037 23.176-.18 46.355 .252 69.523 .401 77.558 .433 84.745-8.628 87.991 .919 88.303 5.053 84.43 4.197 74.213 2.13 49.524 7.496 24.407 0 0" fill="#1aa4cf"/>
<path transform="matrix(1,0,0,-1,306.2979,753.75686)" d="M0 0C19.873 .1 39.761 .652 59.612 .049 66.43-.158 69.194 2.365 70.666 8.097 74.695 .037 75.356-4.91 63.179-4.141 47.405-3.144 31.521-3.98 15.686-3.848 10.217-3.802 4.408-4.602 0 0" fill="#1aa4cf"/>
<path transform="matrix(1,0,0,-1,559.8262,674.20706)" d="M0 0H-76.41C-86.849 0-95.312 8.463-95.312 18.901V239.158C-95.312 249.596-86.849 258.059-76.41 258.059H0C10.438 258.059 18.9 249.596 18.9 239.158V18.901C18.9 8.463 10.438 0 0 0" fill="#0aa4d7"/>
<path transform="matrix(1,0,0,-1,694.6777,704.8447)" d="M0 0H-75.389C-87.003 0-96.418 9.415-96.418 21.029V267.667C-96.418 279.281-87.003 288.696-75.389 288.696H0C11.613 288.696 21.029 279.281 21.029 267.667V21.029C21.029 9.415 11.613 0 0 0" fill="#82c145"/>
<path transform="matrix(1,0,0,-1,481.3809,578.07229)" d="M0 0C-1.075 0-2.148 .042-3.206 .124H-3.541C-40.162 .123-70.029 28.057-73.013 65.1-74.202 79.833-71.843 93.152-66.001 104.684-59.62 117.283-49.21 127.509-35.895 134.256-29.186 137.656-22.643 140.032-16.315 142.33-14.214 143.093-12.111 143.855-10.024 144.655L-8.805 145.123C1.651 149.13 12.463 153.275 23.23 157.218 27.921 158.935 31.981 159.734 36.009 159.734 43.229 159.734 56.366 157.021 63.23 138.844 71.56 116.79 80.63 92.602 91.782 62.724 94.896 54.382 94.86 46.617 91.676 39.645 88.467 32.623 82.483 27.442 73.894 24.246 65.464 21.109 57.046 17.941 48.629 14.773 39.327 11.272 30.025 7.771 20.707 4.313 15.298 2.306 8.055 0 0 0" fill="#ffffff"/>
<path transform="matrix(1,0,0,-1,520.7764,474.96443)" d="M0 0C-.692 4.496-2.806 8.279-5.129 11.965-7.985 16.498-10.988 17.852-16.255 16.59-24.536 14.607-32.163 10.746-40.075 7.749-50.271 3.887-60.953 .575-68.871-7.679-69.5-8.334-70.939-8.822-70.295-9.875-69.449-11.254-68.368-9.919-67.485-9.523-65.068-8.438-63.727-5.269-61.518-4.804-56.534-3.757-52.492-.739-47.76 .675-39.469 3.153-31.263 5.974-22.868 8.018-18.006 9.201-13.087 11.686-7.725 8.375-4.209 6.205-2.97 2.473 0 0M-41.722-81.449C-68.907-82.089-88.952-61.17-90.957-36.28-91.759-26.332-90.597-16.832-86.198-8.148-81.723 .687-74.55 7.396-65.563 11.951-57.896 15.835-49.708 18.389-41.719 21.451-30.754 25.653-19.79 29.863-8.764 33.901-1.784 36.456 1.061 35.129 3.702 28.132 13.265 2.806 22.759-22.547 32.225-47.91 34.402-53.746 32.881-56.5 26.993-58.691 9.254-65.292-8.434-72.032-26.178-78.619-31.377-80.548-36.715-82.059-41.722-81.449" fill="#3f51b5"/>
<path transform="matrix(1,0,0,-1,581.6328,570.83108)" d="M0 0C-3.217 0-6.352 .665-9.316 1.977-15.922 4.896-22.852 12.002-22.89 23.279-23.73 32.692-24.617 42.389-26.126 51.603-28.431 65.684-33.829 79.622-39.162 92.692-45.136 107.332-53.428 121.324-64.515 135.468-77.234 151.696-88.837 163.943-101.028 174.012-103.1 175.722-105.147 177.469-107.197 179.219-113.196 184.34-118.868 189.181-124.708 192.553-136.878 198.776-139.22 210.2-137.531 218.149-135.236 228.925-125.866 236.443-114.745 236.443-113.362 236.443-112.262 236.333-111.659 236.271-93.658 235-77.519 229.294-65.457 224.459-49.2 217.942-32.654 208.834-14.875 196.615-4.54 189.51 4.608 181.165 11.422 174.687 19.991 166.542 27.444 156.725 34.203 144.673 38.055 137.81 40.99 130.214 43.44 120.771L43.54 120.389C45.932 111.173 48.644 100.729 48.524 88.998L48.519 88.667C47.836 61.878 40.104 38.156 25.538 18.161 25.17 17.656 24.832 17.125 24.486 16.6 22.894 14.175 20.519 10.558 16.797 7.193 10.742 1.249 4.341 0 0 0" fill="#ffffff"/>
<path transform="matrix(1,0,0,-1,608.6367,481.61518)" d="M0 0C-.542-21.302-6.168-40.959-18.86-58.382-20.796-61.039-22.307-64.027-24.817-66.215-25.569-66.87-26.37-68.106-27.617-67.556-28.669-67.092-28.293-65.857-28.374-64.947-29.294-54.647-30.218-44.36-31.892-34.135-34.502-18.184-40.187-3.229-46.238 11.606-53.318 28.96-62.992 44.747-74.58 59.529-86.531 74.777-99.429 89.086-114.327 101.39-123.084 108.621-131.392 116.547-141.383 122.223-142.303 122.745-143.758 123.168-143.482 124.461-143.134 126.099-141.508 125.679-140.348 125.599-126.414 124.642-113.298 120.41-100.469 115.267-83.965 108.651-68.645 99.68-54.069 89.663-45.648 83.875-37.908 77.001-30.408 69.873-22.658 62.505-16.709 54.088-11.569 44.928-8.264 39.035-6.09 32.685-4.394 26.147-2.168 17.568 .092 9.007 0 0" fill="#3f51b5"/>
<path transform="matrix(1,0,0,-1,608.8721,466.498)" d="M0 0C-4.561 0-15.84 1.534-22.046 15.741-23.967 20.143-27.036 24.716-30.285 29.56-31.218 30.947-32.149 32.336-33.066 33.736-33.713 34.72-34.866 36.064-36.088 37.486-36.998 38.548-37.906 39.611-38.786 40.699-48.06 52.171-47.293 65.761-36.787 76.166-26.269 86.585-14.119 95.675 .354 103.955 17.541 113.786 36.4 123.511 57.854 128.065 59.41 128.396 61.237 128.921 63.171 129.479 67.77 130.802 72.98 132.302 78.975 132.59L79.49 132.614C79.49 132.614 81.813 132.633 82.115 132.633 82.631 132.633 83.114 132.624 83.586 132.603 83.735 132.605 83.881 132.606 84.025 132.606 94.126 132.606 102.707 126.538 105.888 117.147 108.536 109.324 107.531 97.522 95.995 89.982 81.131 79.591 69.623 70.365 59.798 60.962 54.344 55.743 48.853 49.898 43.478 43.592 40.879 40.545 38.362 37.116 35.697 33.485 32.571 29.227 29.339 24.823 25.546 20.426 25.232 20.023 24.409 18.556 23.809 17.486 23.013 16.069 22.111 14.463 21.013 12.749 14.261 2.212 5.859 0 0 0" fill="#ffffff"/>
<path transform="matrix(1,0,0,-1,688.8779,355.40528)" d="M0 0C1.569 0 2.265 .05 2.95-.012 3.864-.095 5.105 .307 5.496-.847 5.95-2.188 4.71-2.737 3.829-3.353-9.838-12.899-23.062-23.073-35.088-34.582-41.315-40.542-47.261-46.915-52.908-53.539-59.235-60.96-64.393-69.232-70.756-76.61-73.328-79.592-74.961-83.374-77.113-86.732-79.488-90.437-80.644-90.596-82.328-86.738-85.67-79.083-90.549-72.455-95.079-65.551-97.15-62.395-99.729-59.741-102.055-56.863-104.198-54.212-104.433-52.976-101.648-50.218-91.862-40.525-80.764-32.568-68.964-25.818-52.796-16.57-36.177-8.006-17.682-4.08-11.487-2.765-5.552-.266 0 0" fill="#0aa4d7"/>
<path transform="matrix(1,0,0,-1,579.457,412.59858)" d="M0 0C-5.154 0-12.726 1.689-19.544 9.736-31.288 23.604-36.146 40.104-34.396 60.183-33.337 72.338-29.283 83.251-22.004 93.543-16.002 102.03-8.555 106.333 .133 106.333 6.295 106.333 15.171 104.026 22.469 93.04 28.998 83.206 36.376 69.137 35.454 47.453L35.409 46.388 35.26 45.333C34.396 39.271 31.123 23.665 19.412 9.702 12.686 1.684 5.144 0 0 0" fill="#ffffff"/>
<path transform="matrix(1,0,0,-1,593.4092,364.23188)" d="M0 0C-.951-6.681-4.054-16.518-11.03-24.835-13.13-27.339-14.527-27.726-17.074-24.719-25.685-14.554-28.045-3.102-26.908 9.946-26.154 18.593-23.223 25.909-18.385 32.75-14.968 37.58-12.732 37.766-9.413 32.767-3.634 24.063 .625 14.709 0 0" fill="#0aa4d7"/>
<path transform="matrix(1,0,0,-1,571.1758,564.2588)" d="M0 0C-5.291 0-14.982 1.794-21.245 13.623-32.026 27.799-38.538 44.989-41.138 66.107-41.212 66.707-41.292 67.306-41.373 67.907-41.831 71.331-42.391 75.498-42.176 80.457-42.379 84.321-41.981 87.713-41.677 90.302-41.558 91.313-41.396 92.686-41.398 93.231-42.852 106.456-34.737 117.699-22.056 119.995-20.65 120.249-19.229 120.376-17.825 120.376-10.227 120.376-.521 116.33 3.987 104.981 12.481 85.983 17.367 70.565 19.82 55.028 20.133 53.045 20.574 50.897 21.042 48.624 22.068 43.631 23.22 38.026 23.525 31.777 23.693 30.727 23.824 29.495 23.828 28.068L23.846 27.715C24.835 9.138 12.108 2.939 8.185 1.481 5.533 .498 2.781 0 0 0" fill="#ffffff"/>
<path transform="matrix(1,0,0,-1,550.5703,483.6313)" d="M0 0C-.541 4.761 1.195 9.782 .604 14.92 .443 16.321 .626 17.872 2.384 18.189 4.051 18.491 4.339 16.921 4.82 15.849 11.273 1.451 16.691-13.266 19.167-28.956 20.328-36.308 22.497-43.498 22.676-51.01 22.688-51.557 22.915-52.102 22.911-52.646 22.896-54.937 23.639-58.1 21.297-58.969 19.03-59.811 18.489-56.524 17.284-54.999 7.295-42.356 2.765-27.627 .828-11.891 .356-8.055-.351-4.251 0 0" fill="#0aa4d7"/>
<path transform="matrix(1,0,0,-1,681.9404,570.6133)" d="M0 0C-5.772 0-11.664 .746-17.51 2.217-24.8 4.051-31.29 6.548-37.567 8.962-39.659 9.768-41.75 10.573-43.855 11.34L-45.137 11.808C-55.641 15.636-66.502 19.596-77.2 23.679-95.295 30.586-102.072 45.58-95.332 63.788-87.052 86.155-78.031 110.362-66.941 139.968-60.266 157.786-46.229 159.708-40.504 159.708-36.588 159.708-32.563 158.911-28.195 157.271-19.772 154.106-11.338 150.973-2.901 147.84 6.41 144.381 15.724 140.922 25.021 137.42 31.359 135.034 39.34 131.474 45.817 124.893 73.777 100.817 78.164 60.299 55.874 30.059 47.1 18.156 36.583 9.653 24.612 4.784 16.812 1.609 8.529 0 .002 0Z" fill="#ffffff"/>
<path transform="matrix(1,0,0,-1,712.9648,461.39503)" d="M0 0C-3.379 3.746-8.398 6.107-13.588 8.062-31.301 14.732-49.072 21.25-66.79 27.906-72.671 30.115-75.626 29.034-77.811 23.201-87.307-2.151-96.775-27.513-106.173-52.901-108.77-59.915-107.493-62.783-100.55-65.433-89.579-69.62-78.543-73.636-67.51-77.658-59.473-80.587-51.616-84.033-43.282-86.13-33.512-88.589-23.697-88.232-14.522-84.5-5.506-80.832 1.604-74.424 7.525-66.391 22.341-46.29 20.937-17.352 0 0" fill="#0aa4d7"/>
<path transform="matrix(1,0,0,-1,520.7764,474.96443)" d="M0 0C-.692 4.496-2.806 8.279-5.129 11.965-7.985 16.498-10.988 17.852-16.255 16.59-24.536 14.607-32.163 10.746-40.075 7.749-50.271 3.887-60.953 .575-68.871-7.679-69.5-8.334-70.939-8.822-70.295-9.875-69.449-11.254-68.368-9.919-67.485-9.523-65.068-8.438-63.727-5.269-61.518-4.804-56.534-3.757-52.492-.739-47.76 .675-39.469 3.153-31.263 5.974-22.868 8.018-18.006 9.201-13.087 11.686-7.725 8.375-4.209 6.205-2.97 2.473 0 0M-41.722-81.449C-68.907-82.089-88.952-61.17-90.957-36.28-91.759-26.332-90.597-16.832-86.198-8.148-81.723 .687-74.55 7.396-65.563 11.951-57.896 15.835-49.708 18.389-41.719 21.451-30.754 25.653-19.79 29.863-8.764 33.901-1.784 36.456 1.061 35.129 3.702 28.132 13.265 2.806 22.759-22.547 32.225-47.91 34.402-53.746 32.881-56.5 26.993-58.691 9.254-65.292-8.434-72.032-26.178-78.619-31.377-80.548-36.715-82.059-41.722-81.449" fill="#82c145"/>
<path transform="matrix(1,0,0,-1,608.6367,481.61518)" d="M0 0C-.542-21.302-6.168-40.959-18.86-58.382-20.796-61.039-22.307-64.027-24.817-66.215-25.569-66.87-26.37-68.106-27.617-67.556-28.669-67.092-28.293-65.857-28.374-64.947-29.294-54.647-30.218-44.36-31.892-34.135-34.502-18.184-40.187-3.229-46.238 11.606-53.318 28.96-62.992 44.747-74.58 59.529-86.531 74.777-99.429 89.086-114.327 101.39-123.084 108.621-131.392 116.547-141.383 122.223-142.303 122.745-143.758 123.168-143.482 124.461-143.134 126.099-141.508 125.679-140.348 125.599-126.414 124.642-113.298 120.41-100.469 115.267-83.965 108.651-68.645 99.68-54.069 89.663-45.648 83.875-37.908 77.001-30.408 69.873-22.658 62.505-16.709 54.088-11.569 44.928-8.264 39.035-6.09 32.685-4.394 26.147-2.168 17.568 .092 9.007 0 0" fill="#82c145"/>
<path transform="matrix(1,0,0,-1,688.8779,355.40528)" d="M0 0C1.569 0 2.265 .05 2.95-.012 3.864-.095 5.105 .307 5.496-.847 5.95-2.188 4.71-2.737 3.829-3.353-9.838-12.899-23.062-23.073-35.088-34.582-41.315-40.542-47.261-46.915-52.908-53.539-59.235-60.96-64.393-69.232-70.756-76.61-73.328-79.592-74.961-83.374-77.113-86.732-79.488-90.437-80.644-90.596-82.328-86.738-85.67-79.083-90.549-72.455-95.079-65.551-97.15-62.395-99.729-59.741-102.055-56.863-104.198-54.212-104.433-52.976-101.648-50.218-91.862-40.525-80.764-32.568-68.964-25.818-52.796-16.57-36.177-8.006-17.682-4.08-11.487-2.765-5.552-.266 0 0" fill="#0aa4d7"/>
<path transform="matrix(1,0,0,-1,593.4092,364.23188)" d="M0 0C-.951-6.681-4.054-16.518-11.03-24.835-13.13-27.339-14.527-27.726-17.074-24.719-25.685-14.554-28.045-3.102-26.908 9.946-26.154 18.593-23.223 25.909-18.385 32.75-14.968 37.58-12.732 37.766-9.413 32.767-3.634 24.063 .625 14.709 0 0" fill="#0aa4d7"/>
<path transform="matrix(1,0,0,-1,550.5703,483.6313)" d="M0 0C-.541 4.761 1.195 9.782 .604 14.92 .443 16.321 .626 17.872 2.384 18.189 4.051 18.491 4.339 16.921 4.82 15.849 11.273 1.451 16.691-13.266 19.167-28.956 20.328-36.308 22.497-43.498 22.676-51.01 22.688-51.557 22.915-52.102 22.911-52.646 22.896-54.937 23.639-58.1 21.297-58.969 19.03-59.811 18.489-56.524 17.284-54.999 7.295-42.356 2.765-27.627 .828-11.891 .356-8.055-.351-4.251 0 0" fill="#0aa4d7"/>
<path transform="matrix(1,0,0,-1,712.9648,461.39503)" d="M0 0C-3.379 3.746-8.398 6.107-13.588 8.062-31.301 14.732-49.072 21.25-66.79 27.906-72.671 30.115-75.626 29.034-77.811 23.201-87.307-2.151-96.775-27.513-106.173-52.901-108.77-59.915-107.493-62.783-100.55-65.433-89.579-69.62-78.543-73.636-67.51-77.658-59.473-80.587-51.616-84.033-43.282-86.13-33.512-88.589-23.697-88.232-14.522-84.5-5.506-80.832 1.604-74.424 7.525-66.391 22.341-46.29 20.937-17.352 0 0" fill="#0aa4d7"/>
</g>
</g>
</svg>
